<svg id="Layer_1" data-name="Layer 1" xmlns="http://www.w3.org/2000/svg" viewBox="0 0 271.55 47.13"><defs><style>.cls-1{fill:#231f20;}.cls-2{fill:#c41230;}</style></defs><title>SentryOneTM-logo-CMYK</title><path class="cls-1" d="M182.71,411a31.44,31.44,0,0,1-4.45-.28,26.05,26.05,0,0,1-3.37-.69,15.94,15.94,0,0,1-2.44-.89,14.61,14.61,0,0,1-1.64-.89l4.54-7.55,0.46,0.29a15.16,15.16,0,0,0,3.47,1.47,19.8,19.8,0,0,0,5.6.65,13.66,13.66,0,0,0,2.89-.26,7.14,7.14,0,0,0,1.94-.69,3.53,3.53,0,0,0,1.15-1,4.5,4.5,0,0,0,.65-1.28,1.81,1.81,0,0,0-.61-2.16,17.25,17.25,0,0,0-4.93-2.33,33.65,33.65,0,0,1-3.27-1.41,9.31,9.31,0,0,1-2.81-2.09,6.73,6.73,0,0,1-1.57-3.14,8.58,8.58,0,0,1,.44-4.42,13.83,13.83,0,0,1,2.49-4.54,15.86,15.86,0,0,1,4-3.41,19.15,19.15,0,0,1,5.13-2.15,23.86,23.86,0,0,1,6.07-.75,22.6,22.6,0,0,1,6.41.78,18,18,0,0,1,4.1,1.71l0.57,0.35-5.13,7.15-0.45-.26A16.36,16.36,0,0,0,199,382a13.6,13.6,0,0,0-4.22-.55,10.13,10.13,0,0,0-4.32.72,3.33,3.33,0,0,0-1.79,2,1.72,1.72,0,0,0-.06,1.17,2.26,2.26,0,0,0,.78.92,7.79,7.79,0,0,0,1.61.88q1,0.42,2.24.87a41.7,41.7,0,0,1,4.48,2,9.19,9.19,0,0,1,3,2.45,6.22,6.22,0,0,1,1.25,3.39,12.18,12.18,0,0,1-.72,4.5,14,14,0,0,1-6.38,7.88C191.79,410.11,187.7,411,182.71,411Z" transform="translate(-170.82 -372.49)"/><path class="cls-1" d="M214.7,411a16.78,16.78,0,0,1-6.51-1.1,8.93,8.93,0,0,1-4-3.1,8.5,8.5,0,0,1-1.43-4.68,16.79,16.79,0,0,1,.91-5.63h0a21.19,21.19,0,0,1,3.25-6.33,21.81,21.81,0,0,1,4.59-4.51,19.92,19.92,0,0,1,5.34-2.74,17.56,17.56,0,0,1,5.49-.93c4.19,0,7.17,1.24,8.86,3.69s1.78,6,.27,10.66c-0.14.44-.32,0.93-0.53,1.46l-0.56,1.39-0.15.37h-18a2.78,2.78,0,0,0,1,2.57,7.21,7.21,0,0,0,4.66,1.21,26.26,26.26,0,0,0,4.35-.37,21.2,21.2,0,0,0,3.66-.9l0.93-.34-1.11,7.43-0.32.13a16.16,16.16,0,0,1-2,.63c-0.8.21-1.68,0.39-2.61,0.54s-1.93.28-3,.38S215.72,411,214.7,411Zm-0.3-17.78h9.09a6.24,6.24,0,0,0,.13-1.24,2.67,2.67,0,0,0-.31-1.3,2.44,2.44,0,0,0-1-.92,3.92,3.92,0,0,0-1.9-.38,6.2,6.2,0,0,0-2.24.39,6.8,6.8,0,0,0-1.82,1,7.28,7.28,0,0,0-1.41,1.51Q214.68,392.81,214.4,393.27Z" transform="translate(-170.82 -372.49)"/><path class="cls-1" d="M255.33,410.34h-9.25l4.83-14.8c0.92-2.81.86-4.11,0.65-4.71s-1.19-1.1-2.76-1.1c-0.56,0-1.17,0-1.8.07l-1.38.13L239,410.34h-9.24l8.68-26.61,0.32-.08c1.49-.37,3.39-0.72,5.65-1a50.38,50.38,0,0,1,7-.48,15.75,15.75,0,0,1,5.92.92,6.34,6.34,0,0,1,3.27,2.75,7.64,7.64,0,0,1,.82,4.15,20.43,20.43,0,0,1-1,5.07Z" transform="translate(-170.82 -372.49)"/><path class="cls-1" d="M269.63,410.94a13.65,13.65,0,0,1-5.38-.88,6,6,0,0,1-3-2.57,6.91,6.91,0,0,1-.7-3.94,21.51,21.51,0,0,1,1-4.81L269,376.23l9.7-1.39-2.58,7.9h9.61l-2.43,7.45h-9.61L270.77,399a5.92,5.92,0,0,0-.34,3.38c0.25,0.81,1.52,1,2.55,1a17.27,17.27,0,0,0,2.64-.22,17.74,17.74,0,0,0,2.61-.61l0.89-.28-0.95,7.15-0.35.12a31.62,31.62,0,0,1-3.6,1A22.67,22.67,0,0,1,269.63,410.94Z" transform="translate(-170.82 -372.49)"/><path class="cls-1" d="M329,382.74l-0.17.29q-1.18,2-2.59,4.23t-2.9,4.61q-1.49,2.33-3,4.53c-0.63.94-1.24,1.84-1.82,2.67-0.05-.75-0.1-1.54-0.15-2.36-0.08-1.46-.13-3-0.16-4.52s0-3.11,0-4.6,0-2.92.11-4.21l0-.65h-9.69v0.47a7.75,7.75,0,0,0-1.45-.43q-0.87-.18-1.76-0.31c-0.59-.08-1.19-0.15-1.79-0.21s-1.14-.08-1.58-0.08a35,35,0,0,0-6.84.64c-2.09.42-4,.87-5.55,1.34l-0.3.09-8.51,26.09h9.24l6.61-20.25c0.33-.07.76-0.13,1.28-0.19a16.39,16.39,0,0,1,1.78-.12,14.84,14.84,0,0,1,2.91.26q1.34,0.27,2.32.52l0.44,0.11,3.2-5.89a109.32,109.32,0,0,0,.59,12.65,111.13,111.13,0,0,0,1.75,11,13,13,0,0,1-2.63,2.63,5.57,5.57,0,0,1-3.32,1,11.89,11.89,0,0,1-1.9-.14,10.87,10.87,0,0,1-1.92-.53l-0.46-.17-3.92,7,0.61,0.27a12.8,12.8,0,0,0,2.48.77,16.31,16.31,0,0,0,3.48.34,17.05,17.05,0,0,0,4.25-.5,13.49,13.49,0,0,0,3.68-1.57,20.31,20.31,0,0,0,3.42-2.68,46.83,46.83,0,0,0,3.56-3.89c3.43-4.17,6.8-8.53,10-13s6.47-9.24,9.74-14.32l0.61-1H329Z" transform="translate(-170.82 -372.49)"/><path class="cls-2" d="M350.91,411a18.31,18.31,0,0,1-6.89-1.23,11,11,0,0,1-4.87-3.71A11.86,11.86,0,0,1,337,400a21.62,21.62,0,0,1,1.22-8.33,28.1,28.1,0,0,1,10.21-14.3,25.45,25.45,0,0,1,7.13-3.66,24.4,24.4,0,0,1,7.51-1.22,18.32,18.32,0,0,1,6.89,1.23,10.9,10.9,0,0,1,4.86,3.74,12.08,12.08,0,0,1,2.1,6.12,21.62,21.62,0,0,1-1.22,8.33,29.63,29.63,0,0,1-4.11,8.28,27.25,27.25,0,0,1-5.85,6,24.39,24.39,0,0,1-7.1,3.64A25.58,25.58,0,0,1,350.91,411Zm-3.33-19.13a16.15,16.15,0,0,0-.87,4.69,7.7,7.7,0,0,0,.69,3.5,4.93,4.93,0,0,0,2.13,2.2,7.73,7.73,0,0,0,3.7.79,11.48,11.48,0,0,0,4.25-.81,12.76,12.76,0,0,0,3.74-2.31,16.68,16.68,0,0,0,3-3.6,20.68,20.68,0,0,0,2.18-4.72,16.44,16.44,0,0,0,.88-4.72,7.75,7.75,0,0,0-.68-3.53,4.91,4.91,0,0,0-2.15-2.2,7.78,7.78,0,0,0-3.67-.79,11.16,11.16,0,0,0-4.28.83,13.33,13.33,0,0,0-3.73,2.33,16.6,16.6,0,0,0-3,3.62,20.79,20.79,0,0,0-2.17,4.69h0Z" transform="translate(-170.82 -372.49)"/><path class="cls-2" d="M415.72,410.95a16.78,16.78,0,0,1-6.51-1.1,8.93,8.93,0,0,1-4-3.1,8.5,8.5,0,0,1-1.43-4.68,16.79,16.79,0,0,1,.91-5.63h0a21.19,21.19,0,0,1,3.25-6.33,21.81,21.81,0,0,1,4.59-4.51,19.92,19.92,0,0,1,5.34-2.74,17.56,17.56,0,0,1,5.49-.93c4.19,0,7.17,1.24,8.86,3.69s1.78,6,.27,10.66c-0.14.44-.32,0.93-0.53,1.46l-0.56,1.39-0.15.37h-18a2.78,2.78,0,0,0,1,2.57,7.21,7.21,0,0,0,4.66,1.21,26.26,26.26,0,0,0,4.35-.37,21.2,21.2,0,0,0,3.66-.9l0.93-.34-1.11,7.43-0.32.13a16.16,16.16,0,0,1-2,.63c-0.8.21-1.68,0.39-2.61,0.54s-1.93.28-3,.38S416.74,410.95,415.72,410.95Zm-0.3-17.78h9.09a6.24,6.24,0,0,0,.13-1.24,2.67,2.67,0,0,0-.31-1.3,2.44,2.44,0,0,0-1-.92,3.92,3.92,0,0,0-1.9-.38,6.2,6.2,0,0,0-2.24.39,6.8,6.8,0,0,0-1.82,1,7.28,7.28,0,0,0-1.41,1.51Q415.69,392.71,415.42,393.17Z" transform="translate(-170.82 -372.49)"/><path class="cls-2" d="M398.13,410.24h-9.25l4.83-14.8c0.92-2.81.86-4.11,0.65-4.71s-1.19-1.1-2.76-1.1c-0.56,0-1.17,0-1.8.07l-1.38.13-6.66,20.41h-9.24l8.68-26.61,0.32-.08c1.49-.37,3.39-0.72,5.65-1a50.38,50.38,0,0,1,7-.48,15.75,15.75,0,0,1,5.92.92,6.34,6.34,0,0,1,3.27,2.75,7.64,7.64,0,0,1,.82,4.15,20.43,20.43,0,0,1-1,5.07Z" transform="translate(-170.82 -372.49)"/><path class="cls-1" d="M436.46,403.21v0.88h-1.52V408h-1V404.1h-1.52v-0.88h4Zm5.5,0q0.12,0.74.2,1.89t0.2,2.93h-1c0-.24,0-0.5,0-0.77s0-.55,0-0.83,0-.55-0.05-0.82,0-.52-0.06-0.75c-0.11.18-.22,0.4-0.35,0.64l-0.37.73-0.35.68c-0.11.21-.2,0.38-0.25,0.51h-0.71l-0.25-.51-0.35-.68-0.38-.73-0.34-.64q0,0.35-.06.75c0,0.27,0,.54-0.05.82s0,0.55,0,.83,0,0.53,0,.77h-1q0.11-1.78.2-2.93t0.2-1.89h1l0.29,0.59,0.38,0.75,0.41,0.83,0.41,0.81c0.12-.26.26-0.53,0.41-0.81l0.42-.83,0.38-.75,0.29-.59h1Z" transform="translate(-170.82 -372.49)"/></svg>