<?xml version="1.0" encoding="UTF-8" standalone="no"?>
<!-- Created with Inkscape (http://www.inkscape.org/) -->

<svg
   xmlns:dc="http://purl.org/dc/elements/1.1/"
   xmlns:cc="http://creativecommons.org/ns#"
   xmlns:rdf="http://www.w3.org/1999/02/22-rdf-syntax-ns#"
   xmlns:svg="http://www.w3.org/2000/svg"
   xmlns="http://www.w3.org/2000/svg"
   xmlns:sodipodi="http://sodipodi.sourceforge.net/DTD/sodipodi-0.dtd"
   xmlns:inkscape="http://www.inkscape.org/namespaces/inkscape"
   id="svg18825"
   version="1.1"
   inkscape:version="0.48.2 r9819"
   width="1000"
   height="217.09363"
   xml:space="preserve"
   sodipodi:docname="A.svg"><metadata
     id="metadata18831"><rdf:RDF><cc:Work
         rdf:about=""><dc:format>image/svg+xml</dc:format><dc:type
           rdf:resource="http://purl.org/dc/dcmitype/StillImage" /><dc:title></dc:title></cc:Work></rdf:RDF></metadata><defs
     id="defs18829"><clipPath
       clipPathUnits="userSpaceOnUse"
       id="clipPath18841"><path
         d="M 0,792 612,792 612,0 0,0 0,792 z"
         id="path18843"
         inkscape:connector-curvature="0" /></clipPath><clipPath
       clipPathUnits="userSpaceOnUse"
       id="clipPath18849"><path
         d="m 18,732.375 113.328,0 0,31.113 -113.328,0 0,-31.113 z"
         id="path18851"
         inkscape:connector-curvature="0" /></clipPath><clipPath
       clipPathUnits="userSpaceOnUse"
       id="clipPath18991"><path
         d="M 0,0 612,0 612,792 0,792 0,0 z"
         id="path18993"
         inkscape:connector-curvature="0" /></clipPath><clipPath
       clipPathUnits="userSpaceOnUse"
       id="clipPath19191"><path
         d="M 0,0 612,0 612,792 0,792 0,0 z"
         id="path19193"
         inkscape:connector-curvature="0" /></clipPath><clipPath
       clipPathUnits="userSpaceOnUse"
       id="clipPath20081"><path
         d="M 0,792 612,792 612,0 0,0 0,792 z"
         id="path20083"
         inkscape:connector-curvature="0" /></clipPath></defs><sodipodi:namedview
     pagecolor="#ffffff"
     bordercolor="#666666"
     borderopacity="1"
     objecttolerance="10"
     gridtolerance="10"
     guidetolerance="10"
     inkscape:pageopacity="0"
     inkscape:pageshadow="2"
     inkscape:window-width="1075"
     inkscape:window-height="1036"
     id="namedview18827"
     showgrid="false"
     fit-margin-left="0.5"
     fit-margin-bottom="0.5"
     fit-margin-top="0.5"
     fit-margin-right="0.5"
     inkscape:zoom="0.55112144"
     inkscape:cx="630.56572"
     inkscape:cy="-74.054374"
     inkscape:window-x="832"
     inkscape:window-y="-21"
     inkscape:window-maximized="0"
     inkscape:current-layer="g18833" /><g
     id="g18833"
     inkscape:groupmode="layer"
     inkscape:label="automatic-investments"
     transform="matrix(1.25,0,0,-1.25,-24.46934,1138.9596)"><g
       id="g18835"
       transform="matrix(7.3812581,0,0,7.3812581,-127.46867,-4708.6844)"><g
         id="g18837"><g
           id="g18839"
           clip-path="url(#clipPath18841)"><g
             id="g18845"><g
               id="g18847"
               clip-path="url(#clipPath18849)"><g
                 id="g18853"
                 transform="translate(31.2061,738.9993)"><path
                   d="m 0,0 c 6.022,0 10.901,4.881 10.901,10.902 0,6.02 -4.879,10.9 -10.901,10.9 -6.02,0 -10.9,-4.88 -10.9,-10.9 C -10.9,4.881 -6.02,0 0,0"
                   style="fill:#ffffff;fill-opacity:1;fill-rule:nonzero;stroke:none"
                   id="path18855"
                   inkscape:connector-curvature="0" /></g><path
                 inkscape:connector-curvature="0"
                 id="path18859"
                 style="fill:#b38d44;fill-opacity:1;fill-rule:nonzero;stroke:none"
                 d="m 29.5305,748.0839 4.012,0 1.172,-0.76 -5.361,0 -2.406,-7.437 c -2.658,1.031 -5.118,3.419 -6.15,6.103 -1.1,2.601 -1.1,5.869 0.024,8.481 1.054,2.685 3.585,5.11 6.279,6.106 2.12,0.878 4.957,0.971 7.205,0.28 2.58,-0.739 5.016,-2.588 6.432,-5.002 1.584,-2.647 2.029,-6.011 1.066,-9.032 -0.608,-2.005 -1.861,-3.925 -3.586,-5.298 l -2.961,4.934 4.122,-2.299 c 0.023,0 0.035,0.026 0.023,0.05 l -5.399,4.661 6.983,-1.065 c 0.024,0 0.034,0.011 0.034,0.023 l -0.046,0.035 -6.584,2.309 6.842,1.652 c 0.023,0 0.023,0.022 0.011,0.034 l -7.019,-0.457 5.496,4.161 c 0.012,0.023 -0.036,0.034 -0.047,0.01 l -6.174,-3.13 3.408,6.013 c 0,0.009 0,0.034 -0.021,0.022 l -4.453,-5.226 0.855,6.866 c 0,0.013 -0.025,0.025 -0.048,0.013 l -2.048,-6.667 -1.793,6.867 c -0.012,0.011 -0.036,0.023 -0.049,0 l 0.494,-7.123 -4.229,5.504 c -0.013,0.013 -0.024,0 -0.036,-0.011 l 3.199,-6.091 -6.047,3.304 c -0.011,0 -0.035,-0.013 -0.035,-0.024 l 5.378,-4.416 -6.865,0.725 c -0.024,-0.013 -0.024,-0.034 0,-0.045 l 6.656,-1.947 -6.62,-1.945 c -0.013,-0.01 -0.013,-0.034 0,-0.045 l 6.829,0.796 -5.366,-4.558 c -0.012,0 -0.023,-0.023 0,-0.036 l 0.072,0.023 4.297,2.25 1.009,1.605 1.147,0 -0.795,0.562 2.658,4.267 -1.568,-5.039 0.003,-0.003" /><g
                 id="g18861"
                 transform="translate(49.3307,742.4683)"
                 style="fill:#125d34;fill-opacity:1"><path
                   d="m 0,0 -5.357,0 4.29,15.313 10.98,0 -1.046,-3.634 -5.603,0 -0.719,-2.607 5.604,0 -0.945,-3.345 -5.603,0 L 0,0 z"
                   style="fill:#125d34;fill-opacity:1;fill-rule:nonzero;stroke:none"
                   id="path18863"
                   inkscape:connector-curvature="0" /></g><g
                 id="g18865"
                 transform="translate(65.155,754.722)"
                 style="fill:#125d34;fill-opacity:1"><path
                   d="m 0,0 -5.295,0 0.862,3.059 5.295,0 L 0,0 z m -3.428,-12.254 -5.295,0 3.14,11.187 5.296,0 -3.141,-11.187 z"
                   style="fill:#125d34;fill-opacity:1;fill-rule:nonzero;stroke:none"
                   id="path18867"
                   inkscape:connector-curvature="0" /></g><g
                 id="g18869"
                 transform="translate(71.4833,750.3304)"
                 style="fill:#125d34;fill-opacity:1"><path
                   d="m 0,0 c -0.473,0 -0.944,-0.145 -1.211,-0.801 -0.39,-0.944 -0.739,-1.868 -0.739,-2.791 0,-0.432 0.308,-0.801 0.821,-0.801 0.41,0 0.677,0.123 0.903,0.266 l 1.068,3.675 C 0.657,-0.185 0.328,0 0,0 m 3.982,-7.862 -5.193,0 0.369,1.252 c -1.047,-0.883 -2.114,-1.518 -3.817,-1.518 -1.725,0 -2.812,0.821 -2.812,2.565 0,1.929 0.76,4.803 1.888,6.814 0.821,1.499 2.299,2.278 4.044,2.278 1.497,0 2.606,-0.656 3.037,-1.477 l 1.478,5.398 5.295,0 -4.289,-15.312 z"
                   style="fill:#125d34;fill-opacity:1;fill-rule:nonzero;stroke:none"
                   id="path18871"
                   inkscape:connector-curvature="0" /></g><g
                 id="g18873"
                 transform="translate(85.1216,751.1094)"
                 style="fill:#125d34;fill-opacity:1"><path
                   d="m 0,0 c -0.657,0 -1.108,-0.451 -1.396,-1.58 l 2.176,0 c 0.062,0.226 0.144,0.575 0.144,0.781 C 0.924,-0.184 0.554,0 0,0 m 5.295,-3.756 -7.306,0 c -0.144,-0.594 -0.287,-1.005 -0.287,-1.477 0,-0.226 0.041,-0.801 0.779,-0.801 0.739,0 1.068,0.288 1.375,1.375 l 5.193,0 C 4.392,-7.84 0.616,-8.927 -1.703,-8.927 c -3.141,0 -5.583,0.451 -5.583,3.468 0,1.663 0.841,4.413 1.95,5.87 1.334,1.745 3.653,2.401 5.788,2.401 3.284,0 5.418,-0.677 5.418,-3.468 0,-0.678 -0.287,-2.176 -0.575,-3.1"
                   style="fill:#125d34;fill-opacity:1;fill-rule:nonzero;stroke:none"
                   id="path18875"
                   inkscape:connector-curvature="0" /></g><g
                 id="g18877"
                 transform="translate(95.7392,742.4683)"
                 style="fill:#125d34;fill-opacity:1"><path
                   d="m 0,0 -5.296,0 4.29,15.313 5.296,0 L 0,0 z"
                   style="fill:#125d34;fill-opacity:1;fill-rule:nonzero;stroke:none"
                   id="path18879"
                   inkscape:connector-curvature="0" /></g><g
                 id="g18881"
                 transform="translate(106.1628,754.722)"
                 style="fill:#125d34;fill-opacity:1"><path
                   d="m 0,0 -5.295,0 0.862,3.059 5.295,0 L 0,0 z m -3.427,-12.254 -5.296,0 3.14,11.187 5.296,0 -3.14,-11.187 z"
                   style="fill:#125d34;fill-opacity:1;fill-rule:nonzero;stroke:none"
                   id="path18883"
                   inkscape:connector-curvature="0" /></g><g
                 id="g18885"
                 transform="translate(115.683,753.655)"
                 style="fill:#125d34;fill-opacity:1"><path
                   d="m 0,0 0.461,-2.525 -4.053,0 -1.19,-4.248 c -0.103,-0.329 -0.185,-0.739 -0.185,-1.006 0,-0.492 0.205,-0.657 0.923,-0.657 l 1.129,0 -0.78,-2.751 -4.721,0 c -1.56,0 -2.155,0.76 -2.155,1.91 0,0.471 0.062,0.985 0.227,1.56 l 2.873,10.201 5.295,0 L -2.874,0 0,0 z"
                   style="fill:#125d34;fill-opacity:1;fill-rule:nonzero;stroke:none"
                   id="path18887"
                   inkscape:connector-curvature="0" /></g><g
                 id="g18889"
                 transform="translate(43.8654,740.7482)"
                 style="fill:#125d34;fill-opacity:1"><path
                   d="m 0,0 1.32,0.001 -0.841,-2.754 -1.316,0 L 0,0 z"
                   style="fill:#125d34;fill-opacity:1;fill-rule:nonzero;stroke:none"
                   id="path18891"
                   inkscape:connector-curvature="0" /></g><g
                 id="g18893"
                 transform="translate(48.4724,740.7462)"
                 style="fill:#125d34;fill-opacity:1"><path
                   d="m 0,0 1.931,0.001 0.495,-1.836 0.013,0 0.559,1.837 1.146,0.001 -0.847,-2.748 -1.848,-0.006 -0.535,1.962 -0.009,0 L 0.319,-2.747 -0.827,-2.748 0,0 z"
                   style="fill:#125d34;fill-opacity:1;fill-rule:nonzero;stroke:none"
                   id="path18895"
                   inkscape:connector-curvature="0" /></g><g
                 id="g18897"
                 transform="translate(55.1189,740.7449)"
                 style="fill:#125d34;fill-opacity:1"><path
                   d="M 0,0 1.453,0.001 1.708,-1.73 3.037,0.003 4.382,0.004 2.165,-2.745 0.551,-2.747 0,0 z"
                   style="fill:#125d34;fill-opacity:1;fill-rule:nonzero;stroke:none"
                   id="path18899"
                   inkscape:connector-curvature="0" /></g><g
                 id="g18901"
                 transform="translate(62.0315,740.744)"
                 style="fill:#125d34;fill-opacity:1"><path
                   d="M 0,0 3.003,0.003 2.834,-0.555 1.107,-0.556 0.94,-1.121 2.559,-1.12 2.397,-1.65 0.778,-1.651 0.611,-2.196 2.356,-2.195 2.18,-2.752 -0.839,-2.754 0,0 z"
                   style="fill:#125d34;fill-opacity:1;fill-rule:nonzero;stroke:none"
                   id="path18903"
                   inkscape:connector-curvature="0" /></g><g
                 id="g18905"
                 transform="translate(74.9276,740.0734)"
                 style="fill:#125d34;fill-opacity:1"><path
                   d="M 0,0 -1.028,-0.001 -0.825,0.667 2.55,0.67 2.347,0.002 1.319,0.001 0.689,-2.071 -0.63,-2.072 0,0 z"
                   style="fill:#125d34;fill-opacity:1;fill-rule:nonzero;stroke:none"
                   id="path18907"
                   inkscape:connector-curvature="0" /></g><g
                 id="g18909"
                 transform="translate(80.2084,740.7474)"
                 style="fill:#125d34;fill-opacity:1"><path
                   d="m 0,0 2,0.002 0.096,-1.838 0.009,0 1.193,1.839 2.008,0.002 -0.834,-2.755 -1.223,-10e-4 0.627,2.074 -0.009,0 -1.486,-2.075 -1.275,-0.001 -0.181,2.074 -0.013,0 L 0.286,-2.747 -0.834,-2.748 0,0 z"
                   style="fill:#125d34;fill-opacity:1;fill-rule:nonzero;stroke:none"
                   id="path18911"
                   inkscape:connector-curvature="0" /></g><g
                 id="g18913"
                 transform="translate(93.9173,740.7462)"
                 style="fill:#125d34;fill-opacity:1"><path
                   d="m 0,0 1.929,0.001 0.497,-1.836 0.013,0 0.559,1.838 1.145,0 -0.838,-2.754 -1.872,0.005 -0.519,1.957 -0.009,0 L 0.306,-2.747 -0.841,-2.748 0,0 z"
                   style="fill:#125d34;fill-opacity:1;fill-rule:nonzero;stroke:none"
                   id="path18915"
                   inkscape:connector-curvature="0" /></g><g
                 id="g18917"
                 transform="translate(101.2247,740.0776)"
                 style="fill:#125d34;fill-opacity:1"><path
                   d="M 0,0 -1.029,-0.001 -0.826,0.668 2.55,0.67 2.347,0.002 1.318,0.001 0.689,-2.078 -0.631,-2.079 0,0 z"
                   style="fill:#125d34;fill-opacity:1;fill-rule:nonzero;stroke:none"
                   id="path18919"
                   inkscape:connector-curvature="0" /></g><g
                 id="g18921"
                 transform="translate(124.1544,742.0944)"
                 style="fill:#125d34;fill-opacity:1"><path
                   d="m 0,0 c -0.654,0 -1.184,0.53 -1.184,1.184 0,0.654 0.53,1.184 1.184,1.184 0.654,0 1.184,-0.53 1.184,-1.184 C 1.184,0.53 0.654,0 0,0 m 0,2.624 c -0.793,0 -1.44,-0.646 -1.44,-1.44 0,-0.793 0.647,-1.44 1.44,-1.44 0.793,0 1.44,0.647 1.44,1.44 0,0.794 -0.647,1.44 -1.44,1.44"
                   style="fill:#125d34;fill-opacity:1;fill-rule:nonzero;stroke:none"
                   id="path18923"
                   inkscape:connector-curvature="0" /></g><g
                 id="g18925"
                 transform="translate(123.9076,743.3776)"
                 style="fill:#125d34;fill-opacity:1"><path
                   d="m 0,0 0,0.416 0.199,0 C 0.366,0.419 0.552,0.409 0.552,0.21 0.552,0.01 0.366,0 0.199,0 L 0,0 z m 0.824,0.199 c 0,0.286 -0.167,0.447 -0.523,0.447 l -0.56,0 0,-1.484 0.259,0 0,0.607 0.199,0 0.37,-0.607 0.287,0 -0.388,0.628 c 0.202,0.025 0.356,0.151 0.356,0.409"
                   style="fill:#125d34;fill-opacity:1;fill-rule:nonzero;stroke:none"
                   id="path18927"
                   inkscape:connector-curvature="0" /></g><g
                 id="g18929"
                 transform="translate(69.08,739.9118)"
                 style="fill:#125d34;fill-opacity:1"><path
                   d="M 0,0 C -0.029,0.031 -0.031,0.083 -0.018,0.125 0.025,0.265 0.199,0.357 0.478,0.357 0.642,0.358 0.895,0.339 0.967,0.281 1.044,0.226 1.069,0.141 1.042,0.058 l 1.169,0 C 2.349,0.55 2.039,0.867 0.719,0.865 c -1.254,-0.001 -1.965,-0.27 -2.148,-0.87 -0.047,-0.156 -0.053,-0.349 0.077,-0.478 0.323,-0.322 1.781,-0.45 1.904,-0.624 0.025,-0.034 0.034,-0.076 0.019,-0.125 -0.067,-0.221 -0.38,-0.278 -0.653,-0.278 -0.174,0 -0.4,0.037 -0.465,0.109 -0.061,0.072 -0.061,0.183 -0.026,0.254 l -1.224,-0.002 c -0.122,-0.427 -0.175,-0.871 1.526,-0.87 1.427,0.002 2.081,0.351 2.245,0.894 0.081,0.266 0.001,0.414 -0.092,0.508 C 1.565,-0.291 0.153,-0.171 0,0"
                   style="fill:#125d34;fill-opacity:1;fill-rule:nonzero;stroke:none"
                   id="path18931"
                   inkscape:connector-curvature="0" /></g><g
                 id="g18933"
                 transform="translate(88.2013,740.7432)"
                 style="fill:#125d34;fill-opacity:1"><path
                   d="M 0,0 3.003,0.003 2.834,-0.555 1.107,-0.556 0.94,-1.121 2.558,-1.12 2.396,-1.65 0.778,-1.651 0.611,-2.197 2.355,-2.195 2.179,-2.752 -0.839,-2.754 0,0 z"
                   style="fill:#125d34;fill-opacity:1;fill-rule:nonzero;stroke:none"
                   id="path18935"
                   inkscape:connector-curvature="0" /></g><g
                 id="g18937"
                 transform="translate(122.8317,753.655)"
                 style="fill:#125d34;fill-opacity:1"><path
                   d="M 0,0 -2.874,-6.199 -2.792,0 -8.148,0 -7.123,-11.187 c -0.131,-0.655 -0.347,-1.024 -0.758,-1.206 -0.45,-0.2 -1.466,-0.164 -1.824,-0.144 l -0.065,-0.004 -0.845,-3.04 3.615,-0.003 c 2.135,0 3.182,1.073 4.701,3.453 L 5.418,0 0,0 z"
                   style="fill:#125d34;fill-opacity:1;fill-rule:nonzero;stroke:none"
                   id="path18939"
                   inkscape:connector-curvature="0" /></g><g
                 id="g18941"
                 transform="translate(107.1987,739.9185)"
                 style="fill:#125d34;fill-opacity:1"><path
                   d="M 0,0 C -0.029,0.031 -0.03,0.084 -0.018,0.125 0.025,0.265 0.2,0.357 0.478,0.357 0.642,0.358 0.895,0.339 0.967,0.281 1.044,0.226 1.069,0.141 1.042,0.058 l 1.169,0 C 2.349,0.55 2.039,0.867 0.719,0.865 c -1.253,-0.001 -1.965,-0.27 -2.147,-0.87 -0.048,-0.156 -0.054,-0.349 0.076,-0.478 0.323,-0.322 1.781,-0.45 1.904,-0.624 0.025,-0.034 0.034,-0.076 0.019,-0.125 -0.066,-0.221 -0.38,-0.278 -0.653,-0.278 -0.174,0 -0.4,0.037 -0.465,0.109 -0.061,0.072 -0.061,0.183 -0.026,0.254 l -1.224,-0.002 c -0.122,-0.427 -0.175,-0.871 1.526,-0.87 1.427,0.002 2.081,0.351 2.246,0.894 0.08,0.266 0,0.414 -0.093,0.508 C 1.566,-0.291 0.153,-0.171 0,0"
                   style="fill:#125d34;fill-opacity:1;fill-rule:nonzero;stroke:none"
                   id="path18943"
                   inkscape:connector-curvature="0" /></g></g></g></g></g></g><g
       id="g20075"><g
         id="g20077"><g
           id="g20079"
           clip-path="url(#clipPath20081)" /></g></g></g></svg>