<?xml version="1.0" encoding="UTF-8" standalone="no"?>
<svg
   xmlns:dc="http://purl.org/dc/elements/1.1/"
   xmlns:cc="http://creativecommons.org/ns#"
   xmlns:rdf="http://www.w3.org/1999/02/22-rdf-syntax-ns#"
   xmlns:svg="http://www.w3.org/2000/svg"
   xmlns="http://www.w3.org/2000/svg"
   xmlns:sodipodi="http://sodipodi.sourceforge.net/DTD/sodipodi-0.dtd"
   xmlns:inkscape="http://www.inkscape.org/namespaces/inkscape"
   width="2962.9631"
   height="600"
   viewBox="0 0 2370.3684 480.00017"
   version="1.2"
   id="svg2"
   inkscape:version="0.91 r13725"
   sodipodi:docname="Genesys_2017.svg">
  <metadata
     id="metadata868">
    <rdf:RDF>
      <cc:Work
         rdf:about="">
        <dc:format>image/svg+xml</dc:format>
        <dc:type
           rdf:resource="http://purl.org/dc/dcmitype/StillImage" />
        <dc:title>Qt Svg Document</dc:title>
      </cc:Work>
    </rdf:RDF>
  </metadata>
  <sodipodi:namedview
     pagecolor="#ffffff"
     bordercolor="#666666"
     borderopacity="1"
     objecttolerance="10"
     gridtolerance="10"
     guidetolerance="10"
     inkscape:pageopacity="0"
     inkscape:pageshadow="2"
     inkscape:window-width="1680"
     inkscape:window-height="987"
     id="namedview866"
     showgrid="false"
     showguides="false"
     fit-margin-top="0"
     fit-margin-left="0"
     fit-margin-right="0"
     fit-margin-bottom="0"
     inkscape:zoom="0.24447059"
     inkscape:cx="2851.038"
     inkscape:cy="-298.87535"
     inkscape:window-x="-8"
     inkscape:window-y="-8"
     inkscape:window-maximized="1"
     inkscape:current-layer="svg2"
     units="px" />
  <title
     id="title4">Qt Svg Document</title>
  <desc
     id="desc6">Generated with Qt</desc>
  <defs
     id="defs8" />
  <g
     id="g5032"
     transform="translate(-4.882814e-4,0)">
    <path
       id="path22-5"
       d="m 240.59169,27.25928 c 11.85186,0 21.33336,9.48148 21.33336,21.33334 0,11.851861 -9.4815,21.333345 -21.33336,21.333345 0,0 -1.18518,0 -1.18518,0 -10.66668,0 -20.14812,-9.481484 -20.14812,-20.148165 0,-5.92593 2.37036,-11.85186 5.9259,-15.40741 3.55554,-4.74074 9.4815,-7.11111 15.4074,-7.11111 m 0,-27.25928 c -27.25926,0 -49.7778,23.70372 -48.59262,50.963 1.18518,24.888895 21.33336,45.037046 46.22226,46.222241 1.18518,0 1.18518,0 2.37036,0 27.25932,0 48.59262,-22.51854 48.59262,-48.592621 C 289.18431,22.51853 266.66583,0 240.59169,0"
       vector-effect="non-scaling-stroke"
       style="fill:#ff4f1f;fill-opacity:1;fill-rule:nonzero"
       inkscape:connector-curvature="0" />
    <path
       id="path24-2"
       d="m 207.40653,342.51876 c 27.25926,0 49.7778,22.51854 49.7778,49.77768 0,27.25926 -22.51854,49.7778 -49.7778,49.7778 l -53.33334,0 c -27.25926,0 -49.7778,-22.51854 -49.7778,-49.7778 0,-27.25914 22.51854,-49.77768 49.7778,-49.77768 l 53.33334,0 m 0,-33.18522 -53.33334,0 c -45.03708,0 -81.77783,36.74064 -81.77783,81.77772 0,45.03714 36.74075,81.77778 81.77783,81.77778 l 53.33334,0 c 45.03702,0 81.77778,-36.74064 81.77778,-81.77778 0,-45.03708 -36.74076,-81.77772 -81.77778,-81.77772"
       vector-effect="non-scaling-stroke"
       style="fill:#ff4f1f;fill-opacity:1;fill-rule:nonzero"
       inkscape:connector-curvature="0" />
    <path
       id="path26-5"
       d="m 207.40653,150.51864 c 27.25926,0 49.7778,22.51854 49.7778,49.7778 0,27.25918 -22.51854,49.77769 -49.7778,49.77769 l -125.629686,0 c -27.259275,0 -49.7778,-22.51851 -49.7778,-49.77769 0,-27.25926 22.518525,-49.7778 49.7778,-49.7778 l 125.629686,0 m 0,-32.00001 -125.629686,0 c -45.037066,0 -81.77782056289,36.74064 -81.77782056289,81.77781 0,45.03707 36.74075456289,81.77771 81.77782056289,81.77771 l 125.629686,0 c 45.03702,0 81.77778,-36.74064 81.77778,-81.77771 0,-45.03717 -36.74076,-81.77781 -81.77778,-81.77781"
       vector-effect="non-scaling-stroke"
       style="fill:#ff4f1f;fill-opacity:1;fill-rule:nonzero"
       inkscape:connector-curvature="0" />
    <path
       id="path30-4"
       d="m 2312.2965,123.25937 -11.8518,0 0,-4.74074 28.4443,0 0,4.74074 -11.8518,0 0,30.81472 -4.7407,0 0,-30.81472 m 37.926,30.81472 -9.4814,-30.81472 0,30.81472 -5.926,0 0,-35.55546 8.2962,0 9.4816,29.62964 9.4814,-29.62964 8.2962,0 0,35.55546 -4.7406,0 0,-30.81472 -9.4814,30.81472 -5.926,0 m -1424.59341,318.81495 0,-35.55546 -163.55562,0 0,-126.81486 146.96304,0 0,-34.37051 -146.96304,0 0,-122.07412 163.55562,0 0,-35.55546 -199.1112,0 0,354.37041 199.1112,0 m 587.85241,0 0,-35.55546 -163.5558,0 0,-126.81486 146.9631,0 0,-34.37051 -146.9631,0 0,-122.07412 163.5558,0 0,-35.55546 -199.1113,0 0,354.37041 199.1113,0 m 432.5925,0 0,-146.96304 119.7039,-207.40737 -39.1113,0 -97.1851,169.48156 -98.3705,-169.48156 -40.2962,0 119.7037,207.40737 0,146.96304 35.5555,0 m -705.1854,0 0,-354.37041 -35.5556,0 0,289.18533 -175.4075,-289.18533 -35.55561,0 0,354.37041 35.55561,0 0,-289.18519 175.4075,289.18519 35.5556,0 m -701.63005,-151.70376 85.33338,0 0,28.44444 c 0,69.92598 -43.8519,93.6297 -85.33338,93.6297 -41.48154,0 -85.33338,-24.8889 -85.33338,-93.6297 l 0,-105.48139 c 0,-69.92597 43.85184,-93.62969 85.33338,-93.62969 45.03702,0 75.85188,27.25916 82.96302,72.29634 l 35.55552,0 c -8.29626,-65.18535 -54.51852,-107.85196 -118.51854,-107.85196 -72.29634,0 -120.88896,52.14823 -120.88896,129.18531 l 0,106.66657 c 0,77.03712 48.59262,129.18528 120.88896,129.18528 72.29634,0 120.88896,-52.14816 120.88896,-129.18528 l 0,-62.81471 -120.88896,0 0,33.18509 m 1018.07465,45.0372 c 1.1851,50.96286 34.3704,112.59252 114.963,112.59252 65.1852,0 105.4814,-36.74076 105.4814,-97.18524 0,-54.51852 -36.7406,-84.1482 -71.111,-93.62957 l -61.6297,-16.59259 c -29.6296,-8.29631 -46.2222,-29.62964 -46.2222,-60.44448 0,-36.74076 26.0742,-61.62966 66.3704,-61.62966 37.9259,0 64,21.33335 72.2963,62.81484 l 35.5556,0 c -7.1109,-48.59262 -37.926,-97.18528 -107.8519,-97.18528 -60.4446,0 -101.9261,39.11118 -101.9261,96.0001 0,47.40744 26.0741,84.1482 69.9261,95.99994 l 59.2592,16.59258 c 30.8148,8.29632 48.5927,29.62968 48.5927,59.25942 0,40.29618 -24.889,61.62954 -69.9259,61.62954 -45.0371,0 -75.852,-29.6295 -79.4075,-77.03694 l -34.3704,-1.18518 m 523.8521,0 c 1.1852,50.96286 34.3704,112.59252 114.963,112.59252 65.1853,0 105.4815,-36.74076 105.4815,-97.18524 0,-54.51852 -36.7407,-84.1482 -71.1111,-93.62957 l -61.6296,-16.59259 c -29.6297,-8.29631 -46.2222,-29.62964 -46.2222,-60.44448 0,-36.74076 26.0739,-61.62966 66.3703,-61.62966 37.926,0 64.0001,21.33335 72.2964,62.81484 l 35.5555,0 c -7.1112,-48.59262 -37.926,-97.18528 -107.8519,-97.18528 -60.4445,0 -101.9261,39.11107 -101.9261,96.0001 0,47.40744 26.0742,84.1482 69.9262,95.99994 l 59.2592,16.59258 c 30.8148,8.29632 48.5926,29.62968 48.5926,59.25942 0,40.29618 -24.889,61.62954 -69.9261,61.62954 -45.0369,0 -75.8517,-29.62962 -79.4073,-77.03706 l -34.3704,-1.18518"
       vector-effect="non-scaling-stroke"
       style="fill-rule:nonzero;fill:#4f5054;fill-opacity:1"
       inkscape:connector-curvature="0" />
  </g>
</svg>
